<?xml version="1.0" standalone="no"?>
<!DOCTYPE svg PUBLIC "-//W3C//DTD SVG 20010904//EN"
 "http://www.w3.org/TR/2001/REC-SVG-20010904/DTD/svg10.dtd">
<svg version="1.0" xmlns="http://www.w3.org/2000/svg"
 width="1123.000000pt" height="359.000000pt" viewBox="0 0 1123.000000 359.000000"
 preserveAspectRatio="xMidYMid meet">

<g transform="translate(0.000000,359.000000) scale(0.100000,-0.100000)"
fill="#000000" stroke="none">
<path d="M9820 2281 c-13 -25 -13 -58 0 -66 5 -3 9 -38 8 -79 l0 -72 -54 4
c-60 5 -72 -6 -55 -51 11 -27 73 -63 91 -52 7 4 10 -26 8 -97 -3 -163 39 -264
124 -304 66 -30 159 -8 214 51 58 63 0 99 -76 47 -35 -24 -49 -28 -75 -22 -72
16 -95 67 -95 210 0 118 -3 110 50 114 8 1 24 5 35 9 24 8 100 19 134 18 31
-1 81 29 81 50 0 25 -32 29 -166 22 l-121 -6 1 104 c1 57 -2 112 -6 122 -11
25 -84 24 -98 -2z"/>
<path d="M1300 2275 c-7 -8 -18 -15 -24 -15 -6 0 -27 -19 -46 -41 -19 -22 -41
-46 -49 -52 -7 -7 -34 -33 -59 -59 -25 -27 -50 -48 -57 -48 -14 0 -84 -73
-116 -122 l-24 -37 -33 32 c-31 29 -110 127 -170 210 -41 58 -111 124 -136
131 -39 10 -76 -9 -76 -39 0 -35 26 -82 49 -90 11 -3 27 -18 36 -33 10 -15 29
-39 44 -54 14 -14 44 -47 66 -71 22 -25 64 -70 93 -99 30 -29 59 -62 65 -73 6
-12 11 -122 13 -293 2 -150 5 -276 7 -280 3 -4 10 -33 17 -64 10 -44 17 -58
31 -58 43 0 48 20 50 228 2 183 4 243 12 347 2 22 4 61 5 87 2 38 9 56 40 93
65 81 95 111 162 163 142 109 198 178 186 226 -5 22 -12 26 -40 26 -18 0 -39
-7 -46 -15z"/>
<path d="M6173 2238 c-13 -6 -23 -20 -23 -30 0 -22 -18 -60 -33 -69 -5 -4 -5
-14 2 -27 7 -13 9 -96 7 -242 l-4 -223 32 -46 c36 -53 44 -61 68 -61 23 0 43
37 29 54 -6 7 -8 16 -4 19 3 4 0 15 -9 24 -11 14 -14 42 -12 118 3 126 12 243
20 275 4 14 8 36 10 50 11 101 13 137 6 147 -11 18 -63 24 -89 11z"/>
<path d="M1624 2165 c-44 -19 -79 -71 -98 -142 -8 -34 -23 -79 -33 -100 -9
-21 -18 -47 -19 -58 -1 -11 -8 -63 -15 -115 -7 -52 -9 -107 -6 -122 4 -14 25
-41 47 -58 32 -25 46 -30 69 -25 36 8 218 185 237 232 22 51 37 52 32 2 -7
-64 9 -188 27 -215 20 -31 52 -30 90 0 24 20 28 27 18 37 -7 7 -13 21 -13 31
0 9 -6 21 -14 25 -13 7 -22 53 -16 78 2 6 4 26 5 45 8 103 18 179 27 215 20
80 20 93 3 118 -14 22 -22 25 -51 20 -18 -3 -40 -1 -46 5 -46 38 -184 53 -244
27z m201 -107 c19 -13 35 -27 35 -31 0 -28 -112 -197 -131 -197 -5 0 -9 -6 -9
-14 0 -12 -33 -46 -133 -133 -20 -18 -39 -33 -42 -33 -5 0 -1 55 11 125 9 53
44 167 57 183 5 7 7 15 4 18 -3 3 -1 19 5 36 23 66 133 91 203 46z"/>
<path d="M4634 2165 c-36 -16 -80 -70 -90 -111 -12 -53 -44 -147 -53 -158 -6
-7 -10 -21 -10 -31 0 -11 -6 -63 -12 -115 -7 -53 -9 -107 -6 -122 4 -14 25
-41 47 -58 32 -25 46 -30 69 -25 36 8 218 185 237 232 22 52 38 53 31 2 -8
-61 11 -200 30 -221 22 -25 52 -22 88 6 24 20 28 27 18 37 -7 7 -13 21 -13 31
0 9 -8 22 -18 27 -14 8 -22 55 -12 81 1 3 3 21 5 40 8 101 18 179 27 215 20
80 20 93 3 118 -14 22 -22 25 -51 20 -19 -3 -40 -1 -48 6 -44 36 -184 51 -242
26z m201 -107 c19 -13 35 -27 35 -31 0 -25 -115 -197 -132 -197 -4 0 -8 -6 -8
-13 0 -8 -32 -43 -71 -78 -40 -35 -78 -70 -85 -76 -21 -21 -25 -15 -20 35 9
88 47 232 69 260 5 7 7 15 4 18 -3 3 -1 19 5 36 23 66 133 91 203 46z"/>
<path d="M7515 2168 c-46 -17 -94 -83 -95 -130 0 -15 -4 -30 -10 -33 -5 -3
-10 -14 -10 -23 0 -10 -9 -35 -19 -55 -31 -61 -53 -261 -35 -318 2 -9 22 -29
44 -44 47 -33 87 -28 123 14 13 15 30 32 38 37 26 15 129 136 150 174 10 19
19 33 19 30 1 -3 3 -56 5 -118 3 -102 6 -116 26 -138 28 -30 51 -30 85 -1 25
22 26 25 15 60 -7 20 -19 37 -27 37 -15 0 -15 13 1 165 3 28 8 76 10 109 3 32
11 70 18 85 16 32 15 69 -3 98 -11 17 -20 20 -47 16 -18 -3 -38 -1 -45 4 -47
37 -180 53 -243 31z m198 -113 l37 -26 -25 -48 c-21 -43 -81 -125 -148 -202
-26 -30 -143 -129 -152 -129 -10 0 29 208 45 239 20 40 33 78 35 104 8 81 127
116 208 62z"/>
<path d="M7173 2135 c-3 -9 -3 -34 0 -57 6 -44 -5 -73 -78 -203 -6 -11 -30
-49 -53 -84 -23 -35 -42 -68 -42 -73 0 -25 -21 0 -44 55 -15 34 -36 80 -46
102 -11 22 -26 66 -35 97 -15 56 -46 98 -71 98 -21 0 -44 -30 -45 -58 0 -15
-9 -40 -19 -57 -11 -16 -26 -45 -34 -62 -8 -18 -20 -38 -26 -45 -7 -7 -26 -40
-43 -72 -35 -66 -57 -82 -57 -42 0 14 -4 35 -9 48 -24 61 -71 252 -71 287 0
11 -10 32 -23 46 -18 22 -28 25 -50 19 -41 -10 -53 -42 -32 -90 29 -68 47
-126 41 -132 -3 -3 0 -15 8 -26 7 -12 17 -37 22 -56 10 -44 9 -42 17 -60 4 -8
13 -40 21 -70 38 -140 48 -157 86 -145 26 8 62 58 79 110 8 22 22 51 32 64 11
13 19 28 19 33 0 13 79 108 89 108 7 0 101 -190 135 -273 12 -30 45 -57 70
-57 2 0 31 55 66 123 34 67 70 133 80 147 39 56 112 211 117 249 8 57 -16 91
-63 91 -22 0 -37 -6 -41 -15z"/>
<path d="M2385 2133 c-113 -25 -207 -88 -224 -150 -16 -56 1 -114 48 -165 14
-16 32 -28 41 -28 10 0 44 -13 76 -30 32 -16 74 -30 92 -30 31 0 112 -37 112
-52 0 -15 -100 -38 -196 -44 -103 -7 -104 -7 -124 18 -23 30 -64 40 -97 25
-18 -8 -23 -18 -23 -48 0 -52 26 -68 137 -79 83 -9 233 -7 250 3 4 2 22 7 38
11 57 13 84 30 104 67 29 51 26 74 -11 109 -28 25 -110 63 -143 66 -5 0 -27 8
-48 17 -21 9 -53 19 -72 23 -49 9 -99 45 -103 73 -4 22 40 81 60 81 5 0 30 10
56 21 55 26 107 26 134 2 25 -22 49 -8 62 36 8 27 5 34 -18 56 -22 20 -36 25
-79 24 -29 -1 -61 -3 -72 -6z"/>
<path d="M8071 2106 c-19 -20 -21 -29 -13 -62 9 -38 8 -141 -2 -312 -6 -107
10 -166 44 -169 14 -2 34 5 45 15 23 20 95 124 95 137 0 5 10 20 23 34 13 15
45 62 72 105 27 44 62 95 78 113 28 32 31 33 41 16 6 -10 11 -81 12 -158 2
-137 14 -226 36 -252 6 -7 24 -13 41 -13 24 0 42 12 84 58 30 31 61 71 70 87
8 17 22 38 30 47 8 9 12 21 9 27 -4 5 0 14 9 18 8 5 25 23 38 41 l24 32 6 -68
c6 -72 40 -162 76 -199 29 -31 99 -40 141 -18 71 37 137 118 125 155 -11 35
-50 24 -103 -30 -28 -28 -58 -50 -70 -50 -24 0 -54 39 -71 92 -19 58 -13 197
10 263 11 30 11 37 -6 55 -11 12 -31 20 -50 20 -28 0 -36 -6 -54 -42 -33 -65
-61 -108 -116 -179 -28 -35 -59 -81 -70 -102 -11 -21 -30 -48 -42 -59 l-23
-21 -1 59 c-1 32 -2 76 -3 97 -1 22 2 41 5 43 9 5 -10 114 -27 150 -41 86 -86
96 -148 31 -75 -79 -126 -145 -161 -212 -19 -36 -43 -78 -55 -93 l-21 -27 5
50 c3 28 5 106 5 175 0 114 -2 127 -21 147 -27 29 -39 29 -67 -1z"/>
<path d="M5371 2113 c-31 -3 -52 -12 -67 -29 -13 -13 -28 -24 -34 -24 -5 0
-10 -7 -10 -16 0 -9 -15 -34 -34 -55 -24 -29 -35 -52 -39 -89 -3 -28 -15 -70
-26 -95 -13 -29 -20 -68 -21 -108 0 -83 7 -116 35 -151 21 -26 29 -29 86 -29
39 -1 81 6 108 16 46 19 131 73 143 91 3 6 16 22 28 36 45 50 73 129 74 204 0
78 -14 115 -67 176 -26 30 -112 83 -127 78 -3 -1 -25 -3 -49 -5z m61 -94 c13
-6 38 -32 57 -57 29 -40 33 -54 36 -114 1 -47 -2 -72 -12 -79 -7 -6 -13 -17
-13 -24 0 -17 -50 -67 -105 -105 -57 -39 -148 -52 -163 -24 -12 24 3 146 24
186 8 15 15 31 15 35 0 19 53 115 65 120 7 3 22 20 33 39 22 37 29 39 63 23z"/>
<path d="M9413 2112 c-12 -2 -25 -12 -28 -22 -3 -10 -15 -22 -26 -25 -10 -4
-26 -21 -34 -38 -8 -18 -24 -43 -35 -58 -12 -14 -22 -36 -24 -50 -5 -35 -16
-78 -32 -124 -14 -38 -20 -145 -12 -191 2 -11 14 -34 26 -51 19 -27 31 -33 79
-39 42 -5 62 -3 82 8 14 9 39 18 55 22 35 9 123 74 156 118 96 123 99 270 8
373 -56 64 -127 89 -215 77z m116 -106 c24 -19 57 -79 68 -123 24 -97 -22
-181 -138 -251 -46 -27 -123 -40 -143 -22 -24 19 -9 143 25 214 11 22 19 46
19 53 0 7 5 13 10 13 6 0 10 8 10 18 0 10 12 30 28 45 15 14 35 37 45 52 19
27 44 27 76 1z"/>
<path d="M10453 2112 c-12 -2 -25 -11 -28 -21 -3 -10 -17 -23 -30 -29 -14 -6
-25 -18 -25 -25 0 -8 -13 -31 -29 -51 -19 -23 -34 -59 -41 -94 -6 -31 -18 -76
-27 -99 -14 -38 -20 -141 -11 -189 2 -11 14 -34 26 -51 19 -27 31 -33 79 -39
42 -5 62 -3 82 8 14 9 39 18 55 22 35 9 123 74 156 118 94 121 98 271 9 372
-57 65 -128 90 -216 78z m116 -106 c42 -34 83 -139 74 -193 -16 -96 -120 -192
-226 -208 -64 -10 -79 3 -73 64 7 71 17 113 37 155 11 22 19 46 19 53 0 7 5
13 10 13 6 0 10 8 10 18 0 10 12 30 28 45 15 14 35 37 45 52 19 27 44 27 76 1z"/>
<path d="M2802 2089 c-20 -8 -23 -15 -21 -66 1 -32 -1 -125 -5 -208 -7 -144
-6 -152 16 -194 28 -54 62 -69 120 -52 27 9 67 39 133 105 52 51 95 97 95 102
0 5 9 15 21 22 12 8 19 10 16 5 -8 -14 10 -120 28 -161 19 -42 65 -78 112 -88
64 -13 173 42 173 87 0 29 -26 34 -80 15 -88 -32 -126 -4 -139 100 -7 58 -6
79 11 129 11 33 25 69 32 80 8 11 16 34 20 51 5 24 2 34 -18 53 -35 33 -55 24
-82 -41 -32 -75 -58 -113 -124 -175 -30 -28 -71 -66 -91 -85 -19 -18 -49 -40
-65 -48 -16 -8 -37 -25 -48 -38 -11 -14 -22 -20 -28 -14 -11 11 -14 139 -5
282 4 63 4 120 0 126 -12 17 -45 24 -71 13z"/>
<path d="M3990 2072 c-13 -9 -35 -27 -49 -39 -13 -13 -28 -23 -33 -23 -4 0
-18 -22 -30 -50 -12 -27 -25 -50 -30 -50 -4 0 -8 -6 -8 -13 0 -7 -22 -39 -50
-72 -27 -33 -50 -64 -50 -70 0 -5 -12 -23 -26 -40 l-25 -30 5 31 c11 70 18
235 12 287 -6 49 -10 56 -37 67 -49 21 -53 7 -61 -178 -13 -283 -13 -284 12
-315 36 -46 59 -36 141 60 41 47 83 95 95 107 11 12 35 48 53 81 40 71 100
141 105 123 2 -7 12 -56 21 -108 22 -118 65 -220 105 -243 34 -21 92 -22 128
-3 56 29 152 150 152 190 0 19 -27 46 -46 46 -8 0 -29 -22 -46 -50 -17 -27
-34 -50 -37 -50 -3 0 -17 -10 -31 -23 -45 -41 -80 -40 -80 4 0 9 -6 19 -14 22
-18 7 -40 87 -56 194 -12 88 -26 125 -56 148 -24 18 -33 18 -64 -3z"/>
</g>
</svg>
